<svg width="1563" height="1084" viewBox="0 0 1563 1084" fill="none" xmlns="http://www.w3.org/2000/svg">
<path d="M1549 1080L1556 1080L1551.17 1074.93L1499.67 1020.93L1498.78 1020H1497.5H13H6.51882L10.7128 1024.94L57.3944 1079.94L58.2938 1081L59.6836 1081L1549 1080Z" fill="#37AB3D" stroke="black" stroke-width="6"/>
<path d="M43 1061.53H279" stroke="black" stroke-width="5"/>
<path d="M1499 12.4998L1499 6.4779L1503.81 10.105L1558.81 51.605L1560 52.5052L1560 53.9998L1560 1069.5L1560 1076.3L1554.98 1071.71L1499.98 1021.47L1499 1020.58L1499 1019.26L1499 12.4998Z" fill="#E03B00" stroke="black" stroke-width="6"/>
<path d="M1227 1041.53L1517 1041.53" stroke="black" stroke-width="5"/>
<path d="M1540 933.53L1540 1059.53" stroke="black" stroke-width="5"/>
<path d="M1189 1059.53H1279" stroke="black" stroke-width="5"/>
<mask id="mask0_7_394" style="mask-type:alpha" maskUnits="userSpaceOnUse" x="0" y="0" width="1496" height="1017">
<mask id="path-7-outside-1_7_394" maskUnits="userSpaceOnUse" x="0" y="0" width="1496" height="1017" fill="black">
<rect fill="white" width="1496" height="1017"/>
<path d="M6 6H1496V1017H6V6Z"/>
</mask>
<path d="M6 6H1496V1017H6V6Z" fill="white"/>
<path d="M6 6V0H0V6H6ZM6 12H1496V0H6V12ZM12 1017V6H0V1017H12Z" fill="black" mask="url(#path-7-outside-1_7_394)"/>
</mask>
<g mask="url(#mask0_7_394)">
<mask id="path-9-outside-2_7_394" maskUnits="userSpaceOnUse" x="0" y="0" width="1496" height="1017" fill="black">
<rect fill="white" width="1496" height="1017"/>
<path d="M6 6H1496V1017H6V6Z"/>
</mask>
<path d="M6 6H1496V1017H6V6Z" fill="white"/>
<path d="M6 6V0H0V6H6ZM6 12H1496V0H6V12ZM12 1017V6H0V1017H12Z" fill="black" mask="url(#path-9-outside-2_7_394)"/>
<circle cx="30" cy="1007.53" r="76" fill="black"/>
<mask id="path-12-outside-3_7_394" maskUnits="userSpaceOnUse" x="0" y="0" width="1496" height="102" fill="black">
<rect fill="white" width="1496" height="102"/>
<path d="M6 6H1496V96H6V6Z"/>
</mask>
<path d="M6 6H1496V96H6V6Z" fill="#F5BC1F"/>
<path d="M6 6V0H0V6H6ZM6 96H0V102H6V96ZM6 12H1496V0H6V12ZM1496 90H6V102H1496V90ZM12 96V6H0V96H12Z" fill="black" mask="url(#path-12-outside-3_7_394)"/>
<circle cx="58.5" cy="50.5" r="20" fill="#DB3F0D" stroke="black" stroke-width="5"/>
<circle cx="123.5" cy="50.5" r="20" fill="#39A826" stroke="black" stroke-width="5"/>
<circle cx="188.5" cy="50.5" r="20" fill="#8A65A4" stroke="black" stroke-width="5"/>
<path d="M688.551 75V46.1426H679.967V32.1094H712.545V46.1426H703.961V75H688.551ZM716.705 75V44.707H730.973V48.9551C732.223 47.2559 733.639 45.9375 735.221 45C736.783 44.1602 738.512 43.7402 740.406 43.7402H741.051C741.246 43.7402 741.383 43.7598 741.461 43.7988V58.5059C740.66 58.0762 739.908 57.7344 739.205 57.4805C738.463 57.2852 737.838 57.1875 737.33 57.1875C735.455 57.1875 734.02 57.7051 733.023 58.7402C731.969 59.7949 731.441 61.2109 731.441 62.9883V75H716.705ZM758.893 59.7656C758.893 61.0938 759.254 62.1289 759.977 62.8711C760.621 63.6719 761.52 64.0723 762.672 64.0723C763.863 64.0723 764.781 63.6719 765.426 62.8711C766.109 62.0898 766.451 61.0547 766.451 59.7656C766.451 58.4375 766.109 57.373 765.426 56.5723C764.684 55.7715 763.766 55.3711 762.672 55.3711C761.559 55.3711 760.66 55.7715 759.977 56.5723C759.254 57.3535 758.893 58.418 758.893 59.7656ZM766.92 75V70.4297C765.416 72.4414 763.883 73.8867 762.32 74.7656C760.66 75.6836 758.893 76.1426 757.018 76.1426C753.521 76.1426 750.602 74.6387 748.258 71.6309C747.125 70.2051 746.266 68.5156 745.68 66.5625C745.094 64.5898 744.801 62.4414 744.801 60.1172C744.801 55.1758 745.934 51.2207 748.199 48.252C750.426 45.2441 753.365 43.7402 757.018 43.7402C758.912 43.7402 760.611 44.1406 762.115 44.9414C763.658 45.8008 765.084 47.0605 766.393 48.7207V44.707H780.484V75H766.92ZM809.635 57.6562C808.697 56.8945 807.896 56.377 807.232 56.1035C806.334 55.7715 805.475 55.6055 804.654 55.6055C803.209 55.6055 802.027 55.9863 801.109 56.748C800.23 57.5098 799.791 58.5742 799.791 59.9414C799.791 61.2109 800.211 62.2266 801.051 62.9883C801.969 63.7891 803.092 64.1895 804.42 64.1895C805.318 64.1895 806.197 63.9941 807.057 63.6035C807.857 63.252 808.717 62.6953 809.635 61.9336V73.9746C808.248 74.6582 806.783 75.1953 805.24 75.5859C803.834 75.957 802.438 76.1426 801.051 76.1426C798.746 76.1426 796.666 75.7617 794.811 75C792.838 74.1992 791.139 73.0957 789.713 71.6895C788.17 70.1465 786.969 68.3691 786.109 66.3574C785.309 64.3652 784.908 62.2656 784.908 60.0586C784.908 58.418 785.113 56.9141 785.523 55.5469C785.934 54.082 786.529 52.7051 787.311 51.416C788.092 50.166 788.971 49.0625 789.947 48.1055C790.924 47.1484 791.988 46.3574 793.141 45.7324C795.504 44.4043 798.141 43.7402 801.051 43.7402C802.418 43.7402 803.775 43.877 805.123 44.1504C806.666 44.5215 808.17 44.9414 809.635 45.4102V57.6562ZM814.557 75V29.5898H829.117V56.2793L835.299 44.707H852.525L841.773 59.2676L853.111 75H835.709L829.117 63.6621V75H814.557ZM852.262 72.832L856.158 63.4863C857.721 64.541 859.205 65.3809 860.611 66.0059C862.037 66.5527 863.189 66.8262 864.068 66.8262C864.85 66.8262 865.455 66.6699 865.885 66.3574C866.275 66.084 866.471 65.6641 866.471 65.0977C866.471 64.3359 865.592 63.7793 863.834 63.4277C863.307 63.3105 862.848 63.2031 862.457 63.1055C859.645 62.4609 857.584 61.4258 856.275 60C854.967 58.6328 854.312 56.8164 854.312 54.5508C854.312 51.3672 855.65 48.7598 858.326 46.7285C861.002 44.7363 864.439 43.7402 868.639 43.7402C870.826 43.7402 872.867 43.9355 874.762 44.3262C876.715 44.7754 878.531 45.3809 880.211 46.1426L876.607 55.2539C875.143 54.2773 873.912 53.584 872.916 53.1738C871.803 52.7246 870.855 52.5 870.074 52.5C869.391 52.5 868.854 52.6367 868.463 52.9102C868.053 53.2227 867.848 53.6035 867.848 54.0527C867.848 54.7949 868.99 55.4199 871.275 55.9277C871.471 55.9668 871.715 56.0254 872.008 56.1035C872.301 56.1621 872.496 56.2012 872.594 56.2207C875.562 56.9629 877.721 57.9785 879.068 59.2676C880.475 60.6738 881.178 62.4609 881.178 64.6289C881.178 68.0469 879.82 70.8008 877.105 72.8906C874.352 75.0586 870.729 76.1426 866.236 76.1426C863.814 76.1426 861.412 75.8594 859.029 75.293C856.881 74.8047 854.625 73.9844 852.262 72.832Z" fill="black"/>
<path d="M131.5 154.53H64C61.2386 154.53 59 156.769 59 159.53V225.03" stroke="black" stroke-width="5"/>
<path d="M59 571.53V791.03" stroke="black" stroke-width="5"/>
<path d="M1459 401.53V681.03" stroke="black" stroke-width="5"/>
<circle cx="1482" cy="134.53" r="38" fill="black"/>
</g>
</svg>
