<svg width="95" height="45" viewBox="0 0 95 45" fill="none" xmlns="http://www.w3.org/2000/svg">
<g filter="url(#filter0_d_7_215)">
<mask id="path-1-outside-1_7_215" maskUnits="userSpaceOnUse" x="-5" y="-5" width="101" height="51" fill="black">
<rect fill="white" x="-5" y="-5" width="101" height="51"/>
<path d="M28.1309 14.0156L9.35749 21.7031L28.1309 29.3672V36.375L0.521557 24.9609V18.375L28.1309 6.96094V14.0156ZM34.3184 40.4531L51.1231 0.914062H56.7716L39.9903 40.4531H34.3184ZM90.5684 18.375V24.9609L62.9591 36.375V29.3672L81.7325 21.7031L62.9591 14.0156V6.96094L90.5684 18.375Z"/>
</mask>
<path d="M28.1309 14.0156L9.35749 21.7031L28.1309 29.3672V36.375L0.521557 24.9609V18.375L28.1309 6.96094V14.0156ZM34.3184 40.4531L51.1231 0.914062H56.7716L39.9903 40.4531H34.3184ZM90.5684 18.375V24.9609L62.9591 36.375V29.3672L81.7325 21.7031L62.9591 14.0156V6.96094L90.5684 18.375Z" fill="white"/>
<path d="M28.1309 14.0156L30.0257 18.6427L33.1309 17.3711V14.0156H28.1309ZM9.35749 21.7031L7.46276 17.076L-3.85419 21.7102L7.46771 26.3322L9.35749 21.7031ZM28.1309 29.3672H33.1309V26.0078L30.0207 24.7381L28.1309 29.3672ZM28.1309 36.375L26.2207 40.9957L33.1309 43.8525V36.375H28.1309ZM0.521557 24.9609H-4.47844V28.3043L-1.3887 29.5816L0.521557 24.9609ZM0.521557 18.375L-1.3887 13.7543L-4.47844 15.0316V18.375H0.521557ZM28.1309 6.96094H33.1309V-0.516555L26.2207 2.34023L28.1309 6.96094ZM26.2362 9.38853L7.46276 17.076L11.2522 26.3302L30.0257 18.6427L26.2362 9.38853ZM7.46771 26.3322L26.2411 33.9963L30.0207 24.7381L11.2473 17.074L7.46771 26.3322ZM23.1309 29.3672V36.375H33.1309V29.3672H23.1309ZM30.0412 31.7543L2.43181 20.3402L-1.3887 29.5816L26.2207 40.9957L30.0412 31.7543ZM5.52156 24.9609V18.375H-4.47844V24.9609H5.52156ZM2.43181 22.9957L30.0412 11.5816L26.2207 2.34023L-1.3887 13.7543L2.43181 22.9957ZM23.1309 6.96094V14.0156H33.1309V6.96094H23.1309ZM34.3184 40.4531L29.7168 38.4974L26.7605 45.4531H34.3184V40.4531ZM51.1231 0.914062V-4.08594H47.8153L46.5215 -1.0417L51.1231 0.914062ZM56.7716 0.914062L61.3742 2.86751L64.3254 -4.08594H56.7716V0.914062ZM39.9903 40.4531V45.4531H43.2999L44.5929 42.4066L39.9903 40.4531ZM38.9201 42.4089L55.7248 2.86982L46.5215 -1.0417L29.7168 38.4974L38.9201 42.4089ZM51.1231 5.91406H56.7716V-4.08594H51.1231V5.91406ZM52.1689 -1.03939L35.3877 38.4997L44.5929 42.4066L61.3742 2.86751L52.1689 -1.03939ZM39.9903 35.4531H34.3184V45.4531H39.9903V35.4531ZM90.5684 18.375H95.5684V15.0316L92.4787 13.7543L90.5684 18.375ZM90.5684 24.9609L92.4787 29.5816L95.5684 28.3043V24.9609H90.5684ZM62.9591 36.375H57.9591V43.8525L64.8693 40.9957L62.9591 36.375ZM62.9591 29.3672L61.0693 24.7381L57.9591 26.0078V29.3672H62.9591ZM81.7325 21.7031L83.6223 26.3322L94.9442 21.7102L83.6272 17.076L81.7325 21.7031ZM62.9591 14.0156H57.9591V17.3711L61.0643 18.6427L62.9591 14.0156ZM62.9591 6.96094L64.8693 2.34023L57.9591 -0.516555V6.96094H62.9591ZM85.5684 18.375V24.9609H95.5684V18.375H85.5684ZM88.6582 20.3402L61.0488 31.7543L64.8693 40.9957L92.4787 29.5816L88.6582 20.3402ZM67.9591 36.375V29.3672H57.9591V36.375H67.9591ZM64.8488 33.9963L83.6223 26.3322L79.8427 17.074L61.0693 24.7381L64.8488 33.9963ZM83.6272 17.076L64.8538 9.38853L61.0643 18.6427L79.8378 26.3302L83.6272 17.076ZM67.9591 14.0156V6.96094H57.9591V14.0156H67.9591ZM61.0488 11.5816L88.6582 22.9957L92.4787 13.7543L64.8693 2.34023L61.0488 11.5816Z" fill="black" mask="url(#path-1-outside-1_7_215)"/>
</g>
<defs>
<filter id="filter0_d_7_215" x="0.521545" y="0.914062" width="94.0469" height="43.5391" filterUnits="userSpaceOnUse" color-interpolation-filters="sRGB">
<feFlood flood-opacity="0" result="BackgroundImageFix"/>
<feColorMatrix in="SourceAlpha" type="matrix" values="0 0 0 0 0 0 0 0 0 0 0 0 0 0 0 0 0 0 127 0" result="hardAlpha"/>
<feOffset dx="4" dy="4"/>
<feComposite in2="hardAlpha" operator="out"/>
<feColorMatrix type="matrix" values="0 0 0 0 0 0 0 0 0 0 0 0 0 0 0 0 0 0 1 0"/>
<feBlend mode="normal" in2="BackgroundImageFix" result="effect1_dropShadow_7_215"/>
<feBlend mode="normal" in="SourceGraphic" in2="effect1_dropShadow_7_215" result="shape"/>
</filter>
</defs>
</svg>
