<svg width="190" height="57" viewBox="0 0 190 57" fill="none" xmlns="http://www.w3.org/2000/svg">
<g id="Group">
<path id="Vector" d="M4.49911 1.02637V0.776367H4.24911H1.19305H0.943054V1.02637V55.6318V55.8818H1.19305H4.24911H4.49911V55.6318V1.02637Z" fill="black" stroke="black" stroke-width="0.5"/>
<path id="Vector_2" d="M7.5551 1.02637V0.776367H7.3051H5.77707H5.52707V1.02637V55.6318V55.8818H5.77707H7.3051H7.5551V55.6318V1.02637Z" fill="black" stroke="black" stroke-width="0.5"/>
<path id="Vector_3" d="M12.1392 1.02637V0.776367H11.8892H10.3611H10.1111V1.02637V55.6318V55.8818H10.3611H11.8892H12.1392V55.6318V1.02637Z" fill="black" stroke="black" stroke-width="0.5"/>
<path id="Vector_4" d="M19.7794 1.02637V0.776367H19.5294H18.0013H17.7513V1.02637V55.6318V55.8818H18.0013H19.5294H19.7794V55.6318V1.02637Z" fill="black" stroke="black" stroke-width="0.5"/>
<path id="Vector_5" d="M27.4195 1.02637V0.776367H27.1695H24.1135H23.8635V1.02637V55.6318V55.8818H24.1135H27.1695H27.4195V55.6318V1.02637Z" fill="black" stroke="black" stroke-width="0.5"/>
<path id="Vector_6" d="M33.5317 1.02637V0.776367H33.2817H28.6976H28.4476V1.02637V55.6318V55.8818H28.6976H33.2817H33.5317V55.6318V1.02637Z" fill="black" stroke="black" stroke-width="0.5"/>
<path id="Vector_7" d="M36.5877 1.02637V0.776367H36.3377H34.8097H34.5597V1.02637V55.6318V55.8818H34.8097H36.3377H36.5877V55.6318V1.02637Z" fill="black" stroke="black" stroke-width="0.5"/>
<path id="Vector_8" d="M42.6997 1.02637V0.776367H42.4497H37.8656H37.6156V1.02637V55.6318V55.8818H37.8656H42.4497H42.6997V55.6318V1.02637Z" fill="black" stroke="black" stroke-width="0.5"/>
<path id="Vector_9" d="M50.34 1.02637V0.776367H50.09H47.034H46.784V1.02637V55.6318V55.8818H47.034H50.09H50.34V55.6318V1.02637Z" fill="black" stroke="black" stroke-width="0.5"/>
<path id="Vector_10" d="M53.396 1.02637V0.776367H53.146H51.618H51.368V1.02637V55.6318V55.8818H51.618H53.146H53.396V55.6318V1.02637Z" fill="black" stroke="black" stroke-width="0.5"/>
<path id="Vector_11" d="M59.5081 1.02637V0.776367H59.2581H54.674H54.424V1.02637V55.6318V55.8818H54.674H59.2581H59.5081V55.6318V1.02637Z" fill="black" stroke="black" stroke-width="0.5"/>
<path id="Vector_12" d="M64.0922 1.02637V0.776367H63.8422H60.7861H60.5361V1.02637V55.6318V55.8818H60.7861H63.8422H64.0922V55.6318V1.02637Z" fill="black" stroke="black" stroke-width="0.5"/>
<path id="Vector_13" d="M71.7324 1.02637V0.776367H71.4824H68.4264H68.1764V1.02637V55.6318V55.8818H68.4264H71.4824H71.7324V55.6318V1.02637Z" fill="black" stroke="black" stroke-width="0.5"/>
<path id="Vector_14" d="M77.8445 1.02637V0.776367H77.5945H76.0664H75.8164V1.02637V55.6318V55.8818H76.0664H77.5945H77.8445V55.6318V1.02637Z" fill="black" stroke="black" stroke-width="0.5"/>
<path id="Vector_15" d="M80.9006 1.02637V0.776367H80.6506H79.1226H78.8726V1.02637V55.6318V55.8818H79.1226H80.6506H80.9006V55.6318V1.02637Z" fill="black" stroke="black" stroke-width="0.5"/>
<path id="Vector_16" d="M87.0126 1.02637V0.776367H86.7626H85.2345H84.9845V1.02637V55.6318V55.8818H85.2345H86.7626H87.0126V55.6318V1.02637Z" fill="black" stroke="black" stroke-width="0.5"/>
<path id="Vector_17" d="M90.0687 1.02637V0.776367H89.8187H88.2907H88.0407V1.02637V55.6318V55.8818H88.2907H89.8187H90.0687V55.6318V1.02637Z" fill="black" stroke="black" stroke-width="0.5"/>
<path id="Vector_18" d="M97.7088 1.02637V0.776367H97.4588H94.4027H94.1527V1.02637V55.6318V55.8818H94.4027H97.4588H97.7088V55.6318V1.02637Z" fill="black" stroke="black" stroke-width="0.5"/>
<path id="Vector_19" d="M103.821 1.02637V0.776367H103.571H102.043H101.793V1.02637V55.6318V55.8818H102.043H103.571H103.821V55.6318V1.02637Z" fill="black" stroke="black" stroke-width="0.5"/>
<path id="Vector_20" d="M109.933 1.02637V0.776367H109.683H108.155H107.905V1.02637V55.6318V55.8818H108.155H109.683H109.933V55.6318V1.02637Z" fill="black" stroke="black" stroke-width="0.5"/>
<path id="Vector_21" d="M117.573 1.02637V0.776367H117.323H114.267H114.017V1.02637V55.6318V55.8818H114.267H117.323H117.573V55.6318V1.02637Z" fill="black" stroke="black" stroke-width="0.5"/>
<path id="Vector_22" d="M120.629 1.02637V0.776367H120.379H118.851H118.601V1.02637V55.6318V55.8818H118.851H120.379H120.629V55.6318V1.02637Z" fill="black" stroke="black" stroke-width="0.5"/>
<path id="Vector_23" d="M125.213 1.02637V0.776367H124.963H121.907H121.657V1.02637V55.6318V55.8818H121.907H124.963H125.213V55.6318V1.02637Z" fill="black" stroke="black" stroke-width="0.5"/>
<path id="Vector_24" d="M134.381 1.02637V0.776367H134.131H129.547H129.297V1.02637V55.6318V55.8818H129.547H134.131H134.381V55.6318V1.02637Z" fill="black" stroke="black" stroke-width="0.5"/>
<path id="Vector_25" d="M138.966 1.02637V0.776367H138.716H135.66H135.41V1.02637V55.6318V55.8818H135.66H138.716H138.966V55.6318V1.02637Z" fill="black" stroke="black" stroke-width="0.5"/>
<path id="Vector_26" d="M145.078 1.02637V0.776367H144.828H140.244H139.994V1.02637V55.6318V55.8818H140.244H144.828H145.078V55.6318V1.02637Z" fill="black" stroke="black" stroke-width="0.5"/>
<path id="Vector_27" d="M148.134 1.02637V0.776367H147.884H146.356H146.106V1.02637V55.6318V55.8818H146.356H147.884H148.134V55.6318V1.02637Z" fill="black" stroke="black" stroke-width="0.5"/>
<path id="Vector_28" d="M154.246 1.02637V0.776367H153.996H152.468H152.218V1.02637V55.6318V55.8818H152.468H153.996H154.246V55.6318V1.02637Z" fill="black" stroke="black" stroke-width="0.5"/>
<path id="Vector_29" d="M163.414 1.02637V0.776367H163.164H160.108H159.858V1.02637V55.6318V55.8818H160.108H163.164H163.414V55.6318V1.02637Z" fill="black" stroke="black" stroke-width="0.5"/>
<path id="Vector_30" d="M167.998 1.02637V0.776367H167.748H166.22H165.97V1.02637V55.6318V55.8818H166.22H167.748H167.998V55.6318V1.02637Z" fill="black" stroke="black" stroke-width="0.5"/>
<path id="Vector_31" d="M172.582 1.02637V0.776367H172.332H169.276H169.026V1.02637V55.6318V55.8818H169.276H172.332H172.582V55.6318V1.02637Z" fill="black" stroke="black" stroke-width="0.5"/>
<path id="Vector_32" d="M181.75 1.02637V0.776367H181.5H176.916H176.666V1.02637V55.6318V55.8818H176.916H181.5H181.75V55.6318V1.02637Z" fill="black" stroke="black" stroke-width="0.5"/>
<path id="Vector_33" d="M184.807 1.02637V0.776367H184.557H183.029H182.779V1.02637V55.6318V55.8818H183.029H184.557H184.807V55.6318V1.02637Z" fill="black" stroke="black" stroke-width="0.5"/>
<path id="Vector_34" d="M189.391 1.02637V0.776367H189.141H186.085H185.835V1.02637V55.6318V55.8818H186.085H189.141H189.391V55.6318V1.02637Z" fill="black" stroke="black" stroke-width="0.5"/>
</g>
</svg>
